<svg xmlns="http://www.w3.org/2000/svg" width="270" height="51"><path d="M41.133 38.336L23.95 21.152a5.702 5.702 0 0 1-1.654-4.47 11.15 11.15 0 0 0-3.236-8.767 11.09 11.09 0 0 0-7.874-3.254c-1.072 0-2.146.153-3.185.457l6.706 6.706c.725 3.359-4.143 8.286-7.543 7.543L.459 12.663A11.282 11.282 0 0 0 0 15.85c0 2.849 1.08 5.694 3.254 7.87 4.652 4.658 8.77 3.74 13.972 4.023 5.993.327 11.669 4.853 11.166 12.773l5.28 5.28a5.274 5.274 0 0 0 3.73 1.543c3.195 0 5.276-2.609 5.276-5.315 0-1.3-.48-2.621-1.545-3.688zm-3.79 5.446a1.778 1.778 0 1 1 0-3.555 1.778 1.778 0 0 1 0 3.555zm-20.45-12.447a8.003 8.003 0 1 0 .002 16.005 8.003 8.003 0 0 0-.002-16.005zm-.834 11.53l-3.001-2.911 1.237-1.24 1.763 1.672 3.762-3.857 1.238 1.238z" fill="#04a"/><g aria-label="АвтоМайстер" style="line-height:1.25" font-weight="400" font-size="35.333" font-family="Arial" letter-spacing="0" word-spacing="0"><path d="M67.49 35.135h-5.555l-2.208-5.745h-10.11l-2.088 5.745h-5.417l9.85-25.292h5.401zM58.088 25.13l-3.485-9.386-3.416 9.386zM70.233 16.813h10.61q3.261 0 4.883 1.19 1.622 1.19 1.622 3.589 0 1.535-.897 2.674-.88 1.139-2.226 1.518 1.898.466 2.83 1.743.931 1.277.931 2.795 0 2.14-1.57 3.485-1.57 1.328-4.64 1.328H70.232zm4.883 7.608h3.123q2.26 0 3.26-.569 1.018-.57 1.018-1.794 0-1.156-.949-1.64-.931-.5-3.33-.5h-3.122zm0 7.609h3.83q2.07 0 3.02-.5.948-.5.948-1.795 0-1.346-1.087-1.846-1.087-.517-4.227-.517h-2.484zM89.263 16.813h16.58v3.916h-5.866v14.406h-4.848V20.73h-5.866zM107.154 25.715q0-2.415 1.19-4.675t3.365-3.45q2.19-1.191 4.882-1.191 4.158 0 6.815 2.709 2.657 2.691 2.657 6.814 0 4.158-2.692 6.901-2.674 2.726-6.745 2.726-2.52 0-4.814-1.138-2.277-1.139-3.468-3.33-1.19-2.208-1.19-5.366zm4.969.26q0 2.725 1.294 4.174 1.294 1.45 3.191 1.45 1.898 0 3.175-1.45 1.294-1.449 1.294-4.21 0-2.69-1.294-4.14-1.277-1.45-3.175-1.45-1.897 0-3.191 1.45-1.294 1.45-1.294 4.175z" style="-inkscape-font-specification:'Arial Bold'" font-weight="700"/><path d="M131.962 35.135V9.843H137l5.986 17.908q.828 2.502 1.208 3.744.431-1.38 1.346-4.054l6.055-17.598h4.503v25.292h-3.226V13.966l-7.35 21.17h-3.019l-7.315-21.532v21.531zM173.506 32.875q-1.725 1.467-3.33 2.07-1.587.604-3.416.604-3.019 0-4.64-1.466-1.622-1.484-1.622-3.778 0-1.346.604-2.45.62-1.122 1.604-1.795 1-.672 2.243-1.018.914-.241 2.76-.465 3.761-.449 5.538-1.07.018-.638.018-.81 0-1.899-.88-2.675-1.19-1.052-3.537-1.052-2.191 0-3.244.776-1.035.759-1.535 2.709l-3.036-.414q.414-1.95 1.362-3.14.95-1.208 2.744-1.846 1.794-.656 4.157-.656 2.347 0 3.813.552 1.467.552 2.157 1.397.69.829.966 2.105.155.794.155 2.864v4.14q0 4.331.19 5.487.207 1.139.794 2.191h-3.244q-.483-.966-.62-2.26zm-.259-6.935q-1.69.69-5.072 1.173-1.915.276-2.709.62-.793.346-1.224 1.019-.432.655-.432 1.466 0 1.242.932 2.07.949.829 2.76.829 1.795 0 3.192-.777 1.397-.793 2.053-2.156.5-1.053.5-3.106zM181.218 16.813h3.106v13.975l8.609-13.975h3.347v18.322h-3.106V21.247l-8.609 13.888h-3.347zm10.783-6.936h2.122q-.259 2.157-1.587 3.313-1.311 1.156-3.502 1.156-2.209 0-3.537-1.139-1.311-1.156-1.57-3.33h2.122q.241 1.174.949 1.76.724.57 1.932.57 1.397 0 2.105-.553.724-.569.966-1.777zM212.911 28.424l3.054.397q-.5 3.157-2.57 4.951-2.054 1.777-5.056 1.777-3.76 0-6.055-2.45-2.278-2.467-2.278-7.056 0-2.967.984-5.193.983-2.225 2.984-3.33 2.019-1.121 4.382-1.121 2.985 0 4.883 1.518 1.898 1.501 2.433 4.279l-3.02.466q-.431-1.846-1.535-2.778-1.087-.932-2.64-.932-2.346 0-3.813 1.691-1.466 1.674-1.466 5.314 0 3.692 1.415 5.365 1.414 1.674 3.692 1.674 1.828 0 3.053-1.121 1.225-1.122 1.553-3.451zM216.948 16.813h14.89v2.57h-5.901v15.752h-3.088V19.384h-5.9zM246.968 29.235l3.209.397q-.76 2.812-2.812 4.365-2.053 1.552-5.245 1.552-4.02 0-6.384-2.467-2.346-2.484-2.346-6.953 0-4.623 2.38-7.177 2.382-2.553 6.177-2.553 3.675 0 6.004 2.502 2.33 2.501 2.33 7.039 0 .276-.018.828h-13.664q.172 3.019 1.708 4.623 1.535 1.605 3.83 1.605 1.708 0 2.916-.897 1.207-.897 1.915-2.864zm-10.197-5.02h10.231q-.207-2.312-1.173-3.468-1.484-1.795-3.847-1.795-2.14 0-3.606 1.432-1.45 1.432-1.605 3.83zM254.093 42.157V16.813h2.83v2.38q1-1.397 2.26-2.087 1.26-.707 3.053-.707 2.347 0 4.141 1.208 1.794 1.207 2.709 3.416.914 2.19.914 4.813 0 2.812-1.018 5.072-1 2.243-2.933 3.45-1.915 1.191-4.037 1.191-1.553 0-2.795-.655-1.225-.656-2.018-1.657v8.92zm2.812-16.08q0 3.537 1.432 5.228 1.432 1.69 3.468 1.69 2.07 0 3.537-1.742 1.484-1.76 1.484-5.434 0-3.502-1.45-5.245-1.432-1.742-3.433-1.742-1.984 0-3.52 1.863-1.518 1.846-1.518 5.383z" style="-inkscape-font-specification:Arial" fill="#04a"/></g></svg>