<?xml version="1.0" encoding="UTF-8" standalone="no"?>
<svg
   xmlns:dc="http://purl.org/dc/elements/1.1/"
   xmlns:cc="http://creativecommons.org/ns#"
   xmlns:rdf="http://www.w3.org/1999/02/22-rdf-syntax-ns#"
   xmlns:svg="http://www.w3.org/2000/svg"
   xmlns="http://www.w3.org/2000/svg"
   xmlns:sodipodi="http://sodipodi.sourceforge.net/DTD/sodipodi-0.dtd"
   xmlns:inkscape="http://www.inkscape.org/namespaces/inkscape"
   width="270"
   height="50"
   viewBox="0 0 269.99999 50"
   version="1.1"
   id="svg4"
   sodipodi:docname="logo.svg"
   inkscape:version="0.92.3 (2405546, 2018-03-11)">
  <metadata
     id="metadata10">
    <rdf:RDF>
      <cc:Work
         rdf:about="">
        <dc:format>image/svg+xml</dc:format>
        <dc:type
           rdf:resource="http://purl.org/dc/dcmitype/StillImage" />
        <dc:title></dc:title>
      </cc:Work>
    </rdf:RDF>
  </metadata>
  <defs
     id="defs8" />
  <sodipodi:namedview
     pagecolor="#ffffff"
     bordercolor="#666666"
     borderopacity="1"
     objecttolerance="10"
     gridtolerance="10"
     guidetolerance="10"
     inkscape:pageopacity="0"
     inkscape:pageshadow="2"
     inkscape:window-width="1440"
     inkscape:window-height="841"
     id="namedview6"
     showgrid="false"
     inkscape:zoom="2.4583333"
     inkscape:cx="172.12202"
     inkscape:cy="23.588513"
     inkscape:window-x="0"
     inkscape:window-y="27"
     inkscape:window-maximized="1"
     inkscape:current-layer="svg4"
     fit-margin-top="0"
     fit-margin-left="0"
     fit-margin-right="0"
     fit-margin-bottom="0" />
  <path
     d="M 41.132668,37.33571 23.95123,20.152495 c -1.1772,-1.175422 -1.781805,-2.811411 -1.653771,-4.470516 0.24362,-3.142165 -0.837555,-6.3661308 -3.236412,-8.7667668 -2.178354,-2.1765763 -5.023552,-3.2541951 -7.874085,-3.2541951 -1.072283,0 -2.1463447,0.15293 -3.1848437,0.4570099 l 6.7057757,6.705776 c 0.725526,3.359112 -4.143319,8.286639 -7.5433307,7.543329 L 0.4587885,11.663136 C 0.1529292,12.701634 0,13.775695 0,14.849759 c 0,2.848753 1.0793971,5.693951 3.2541947,7.870527 4.6518986,4.657232 8.7703223,3.739656 13.9716993,4.022398 5.992697,0.327196 11.668867,4.85284 11.165623,12.773158 l 5.27962,5.279622 c 1.033162,1.027827 2.381075,1.543519 3.730765,1.543519 3.195513,0 5.276064,-2.608691 5.276064,-5.315186 0,-1.299899 -0.480127,-2.621138 -1.545298,-3.688087 z m -3.789448,5.446774 c -0.983372,0 -1.778248,-0.796654 -1.778248,-1.778248 0,-0.981594 0.794876,-1.778249 1.778248,-1.778249 0.983371,0 1.778249,0.794877 1.778249,1.778249 0,0.983372 -0.794878,1.778248 -1.778249,1.778248 z M 16.893362,30.334744 c -4.418948,0 -8.0021187,3.583173 -8.0021187,8.002119 0,4.418949 3.5831707,8.002119 8.0021187,8.002119 4.418947,0 8.002118,-3.58317 8.002118,-8.002119 0,-4.418946 -3.583171,-8.002119 -8.002118,-8.002119 z m -0.833998,11.530165 -3.001684,-2.910992 1.237662,-1.239441 1.762243,1.671554 3.762774,-3.857022 1.23766,1.237662 z"
     id="path2"
     style="fill:#0044aa;fill-opacity:1;stroke-width:1.77824855"
     inkscape:connector-curvature="0" />
  <flowRoot
     xml:space="preserve"
     id="flowRoot3738"
     style="font-style:normal;font-weight:normal;font-size:40px;line-height:1.25;font-family:sans-serif;letter-spacing:0px;word-spacing:0px;fill:#000000;fill-opacity:1;stroke:none"
     transform="translate(-5.7966101,3.8813551)"><flowRegion
       id="flowRegion3740"><rect
         id="rect3742"
         width="42.711864"
         height="52.474575"
         x="185.8983"
         y="3.4067798" /></flowRegion><flowPara
       id="flowPara3744">Ма</flowPara></flowRoot>  <text
     xml:space="preserve"
     style="font-style:normal;font-weight:normal;font-size:40px;line-height:1.25;font-family:sans-serif;letter-spacing:0px;word-spacing:0px;fill:#000000;fill-opacity:1;stroke:none"
     x="44.111656"
     y="34.135254"
     id="text17"><tspan
       sodipodi:role="line"
       id="tspan15"
       x="44.111656"
       y="34.135254"
       style="font-size:35.33333206px"><tspan
         style="font-style:normal;font-variant:normal;font-weight:bold;font-stretch:normal;font-size:35.33333206px;font-family:Arial;-inkscape-font-specification:'Arial Bold'"
         id="tspan19">Авто</tspan><tspan
         style="font-style:normal;font-variant:normal;font-weight:normal;font-stretch:normal;font-size:35.33333206px;font-family:Arial;-inkscape-font-specification:Arial;fill:#0044aa"
         id="tspan23">Майстер</tspan></tspan></text>
</svg>
